{
    "asset" : {
        "generator" : "Khronos glTF Blender I/O v0.9.67",
        "version" : "2.0"
    },
    "scene" : 0,
    "scenes" : [
        {
            "name" : "Scene",
            "nodes" : [
                0
            ]
        }
    ],
    "nodes" : [
        {
            "mesh" : 0,
            "name" : "Suzanne"
        }
    ],
    "materials" : [
        {
            "doubleSided" : true,
            "name" : "Material.003",
            "pbrMetallicRoughness" : {
                "metallicFactor" : 0.7833333015441895,
                "baseColorTexture" : {
                    "index" : 0,
                    "texCoord" : 0
                },
                "roughnessFactor" : 0.40833333134651184
            }
        }
    ],
    "meshes" : [
        {
            "primitives" : [
                {
                    "material" : 0,
                    "attributes" : {
                        "NORMAL" : 0,
                        "POSITION" : 1,
                        "TEXCOORD_0" : 2
                    },
                    "indices" : 3
                }
            ],
            "name" : "Suzanne"
        }
    ],
    "textures" : [
        {
            "source" : 0
        }
    ],
    "images" : [
        {
            "name" : "Delphinus_delphis_02",
            "mimeType" : "image/jpeg",
            "uri" : "Delphinus_delphis_02.jpg"
        }
    ],
    "accessors" : [
        {
            "bufferView" : 0,
            "count" : 1968,
            "type" : "VEC3",
            "componentType" : 5126
        },
        {
            "count" : 1968,
            "min" : [
                -1.3671875,
                -0.984375,
                -0.8515625
            ],
            "bufferView" : 1,
            "max" : [
                1.3671875,
                0.984375,
                0.8515625
            ],
            "type" : "VEC3",
            "componentType" : 5126
        },
        {
            "bufferView" : 2,
            "count" : 1968,
            "type" : "VEC2",
            "componentType" : 5126
        },
        {
            "bufferView" : 3,
            "count" : 2904,
            "type" : "SCALAR",
            "componentType" : 5123
        }
    ],
    "bufferViews" : [
        {
            "byteOffset" : 0,
            "buffer" : 0,
            "byteLength" : 23616
        },
        {
            "byteOffset" : 23616,
            "buffer" : 0,
            "byteLength" : 23616
        },
        {
            "byteOffset" : 47232,
            "buffer" : 0,
            "byteLength" : 15744
        },
        {
            "byteOffset" : 62976,
            "buffer" : 0,
            "byteLength" : 5808
        }
    ],
    "buffers" : [
        {
            "byteLength" : 68784,
            "uri" : "Suzanne.bin"
        }
    ]
}
